<mxfile host="65bd71144e">
    <diagram id="O9m0RAeGRGvT8AL0pG2F" name="Page-1">
        <mxGraphModel dx="443" dy="496" grid="1" gridSize="10" guides="1" tooltips="1" connect="1" arrows="1" fold="1" page="1" pageScale="1" pageWidth="850" pageHeight="1100" math="0" shadow="0">
            <root>
                <mxCell id="0"/>
                <mxCell id="1" parent="0"/>
                <mxCell id="2" value="" style="rounded=0;whiteSpace=wrap;html=1;" vertex="1" parent="1">
                    <mxGeometry x="250" y="240" width="120" height="60" as="geometry"/>
                </mxCell>
                <mxCell id="10" style="edgeStyle=none;html=1;entryX=0.923;entryY=-0.062;entryDx=0;entryDy=0;entryPerimeter=0;" edge="1" parent="1" source="3" target="9">
                    <mxGeometry relative="1" as="geometry"/>
                </mxCell>
                <mxCell id="3" value="Pet" style="rounded=0;whiteSpace=wrap;html=1;" vertex="1" parent="1">
                    <mxGeometry x="550" y="270" width="120" height="60" as="geometry"/>
                </mxCell>
                <mxCell id="7" style="edgeStyle=none;html=1;exitX=0;exitY=0.5;exitDx=0;exitDy=0;entryX=0.25;entryY=0;entryDx=0;entryDy=0;" edge="1" parent="1" source="4" target="3">
                    <mxGeometry relative="1" as="geometry"/>
                </mxCell>
                <mxCell id="4" value="Owner" style="rounded=0;whiteSpace=wrap;html=1;" vertex="1" parent="1">
                    <mxGeometry x="670" y="130" width="120" height="60" as="geometry"/>
                </mxCell>
                <mxCell id="5" value="" style="endArrow=classic;html=1;" edge="1" parent="1" target="4">
                    <mxGeometry width="50" height="50" relative="1" as="geometry">
                        <mxPoint x="630" y="270" as="sourcePoint"/>
                        <mxPoint x="630" y="270" as="targetPoint"/>
                    </mxGeometry>
                </mxCell>
                <mxCell id="6" value="Belongs to" style="text;html=1;align=center;verticalAlign=middle;resizable=0;points=[];autosize=1;strokeColor=none;fillColor=none;" vertex="1" parent="1">
                    <mxGeometry x="680" y="230" width="80" height="30" as="geometry"/>
                </mxCell>
                <mxCell id="8" value="Has many" style="text;html=1;strokeColor=none;fillColor=none;align=center;verticalAlign=middle;whiteSpace=wrap;rounded=0;" vertex="1" parent="1">
                    <mxGeometry x="560" y="200" width="60" height="30" as="geometry"/>
                </mxCell>
                <mxCell id="11" style="edgeStyle=none;html=1;entryX=0;entryY=0.5;entryDx=0;entryDy=0;" edge="1" parent="1" source="9" target="3">
                    <mxGeometry relative="1" as="geometry"/>
                </mxCell>
                <mxCell id="15" style="edgeStyle=none;html=1;entryX=0;entryY=0.25;entryDx=0;entryDy=0;" edge="1" parent="1" source="9" target="14">
                    <mxGeometry relative="1" as="geometry"/>
                </mxCell>
                <mxCell id="9" value="Appointment" style="rounded=0;whiteSpace=wrap;html=1;" vertex="1" parent="1">
                    <mxGeometry x="400" y="390" width="120" height="60" as="geometry"/>
                </mxCell>
                <mxCell id="12" value="has many" style="text;html=1;strokeColor=none;fillColor=none;align=center;verticalAlign=middle;whiteSpace=wrap;rounded=0;" vertex="1" parent="1">
                    <mxGeometry x="550" y="360" width="60" height="30" as="geometry"/>
                </mxCell>
                <mxCell id="13" value="belongs to" style="text;html=1;strokeColor=none;fillColor=none;align=center;verticalAlign=middle;whiteSpace=wrap;rounded=0;" vertex="1" parent="1">
                    <mxGeometry x="460" y="300" width="60" height="30" as="geometry"/>
                </mxCell>
                <mxCell id="17" style="edgeStyle=none;html=1;entryX=1;entryY=0.75;entryDx=0;entryDy=0;" edge="1" parent="1" source="14" target="9">
                    <mxGeometry relative="1" as="geometry"/>
                </mxCell>
                <mxCell id="14" value="Procedure" style="rounded=0;whiteSpace=wrap;html=1;" vertex="1" parent="1">
                    <mxGeometry x="520" y="530" width="120" height="60" as="geometry"/>
                </mxCell>
                <mxCell id="16" value="belongs to" style="text;html=1;strokeColor=none;fillColor=none;align=center;verticalAlign=middle;whiteSpace=wrap;rounded=0;" vertex="1" parent="1">
                    <mxGeometry x="410" y="500" width="60" height="30" as="geometry"/>
                </mxCell>
                <mxCell id="18" value="has many" style="text;html=1;strokeColor=none;fillColor=none;align=center;verticalAlign=middle;whiteSpace=wrap;rounded=0;" vertex="1" parent="1">
                    <mxGeometry x="530" y="440" width="60" height="30" as="geometry"/>
                </mxCell>
            </root>
        </mxGraphModel>
    </diagram>
    <diagram id="FgXvgErEUdCYI2-mHMDL" name="Page-2">
        <mxGraphModel dx="443" dy="496" grid="1" gridSize="10" guides="1" tooltips="1" connect="1" arrows="1" fold="1" page="1" pageScale="1" pageWidth="850" pageHeight="1100" math="0" shadow="0">
            <root>
                <mxCell id="0"/>
                <mxCell id="1" parent="0"/>
                <mxCell id="m5Yi8W5hC-aKDTlVTT4_-4" style="edgeStyle=none;html=1;" edge="1" parent="1" source="m5Yi8W5hC-aKDTlVTT4_-1" target="m5Yi8W5hC-aKDTlVTT4_-3">
                    <mxGeometry relative="1" as="geometry"/>
                </mxCell>
                <mxCell id="m5Yi8W5hC-aKDTlVTT4_-1" value="Customer" style="rounded=0;whiteSpace=wrap;html=1;" vertex="1" parent="1">
                    <mxGeometry x="20" y="30" width="90" height="50" as="geometry"/>
                </mxCell>
                <mxCell id="m5Yi8W5hC-aKDTlVTT4_-6" style="edgeStyle=none;html=1;entryX=1;entryY=0;entryDx=0;entryDy=0;" edge="1" parent="1" source="m5Yi8W5hC-aKDTlVTT4_-2" target="m5Yi8W5hC-aKDTlVTT4_-3">
                    <mxGeometry relative="1" as="geometry"/>
                </mxCell>
                <mxCell id="m5Yi8W5hC-aKDTlVTT4_-2" value="Coffee" style="rounded=0;whiteSpace=wrap;html=1;" vertex="1" parent="1">
                    <mxGeometry x="340" y="20" width="100" height="60" as="geometry"/>
                </mxCell>
                <mxCell id="m5Yi8W5hC-aKDTlVTT4_-3" value="Order" style="rounded=0;whiteSpace=wrap;html=1;" vertex="1" parent="1">
                    <mxGeometry x="180" y="100" width="90" height="50" as="geometry"/>
                </mxCell>
                <mxCell id="e6D0tHdvvqGrV7QYx08n-4" style="edgeStyle=none;html=1;" edge="1" parent="1" source="e6D0tHdvvqGrV7QYx08n-1" target="e6D0tHdvvqGrV7QYx08n-3">
                    <mxGeometry relative="1" as="geometry"/>
                </mxCell>
                <mxCell id="e6D0tHdvvqGrV7QYx08n-1" value="Movie" style="rounded=0;whiteSpace=wrap;html=1;" vertex="1" parent="1">
                    <mxGeometry x="10" y="230" width="110" height="60" as="geometry"/>
                </mxCell>
                <mxCell id="e6D0tHdvvqGrV7QYx08n-5" style="edgeStyle=none;html=1;" edge="1" parent="1" source="e6D0tHdvvqGrV7QYx08n-2" target="e6D0tHdvvqGrV7QYx08n-3">
                    <mxGeometry relative="1" as="geometry"/>
                </mxCell>
                <mxCell id="e6D0tHdvvqGrV7QYx08n-2" value="Actor" style="rounded=0;whiteSpace=wrap;html=1;" vertex="1" parent="1">
                    <mxGeometry x="280" y="230" width="120" height="60" as="geometry"/>
                </mxCell>
                <mxCell id="e6D0tHdvvqGrV7QYx08n-3" value="Role" style="rounded=0;whiteSpace=wrap;html=1;" vertex="1" parent="1">
                    <mxGeometry x="140" y="310" width="120" height="60" as="geometry"/>
                </mxCell>
                <mxCell id="e6D0tHdvvqGrV7QYx08n-10" style="edgeStyle=none;html=1;entryX=0;entryY=0.25;entryDx=0;entryDy=0;" edge="1" parent="1" source="e6D0tHdvvqGrV7QYx08n-6" target="e6D0tHdvvqGrV7QYx08n-8">
                    <mxGeometry relative="1" as="geometry"/>
                </mxCell>
                <mxCell id="e6D0tHdvvqGrV7QYx08n-6" value="Doctor" style="rounded=0;whiteSpace=wrap;html=1;" vertex="1" parent="1">
                    <mxGeometry x="20" y="400" width="120" height="60" as="geometry"/>
                </mxCell>
                <mxCell id="e6D0tHdvvqGrV7QYx08n-9" style="edgeStyle=none;html=1;entryX=1;entryY=0.5;entryDx=0;entryDy=0;" edge="1" parent="1" source="e6D0tHdvvqGrV7QYx08n-7" target="e6D0tHdvvqGrV7QYx08n-8">
                    <mxGeometry relative="1" as="geometry"/>
                </mxCell>
                <mxCell id="e6D0tHdvvqGrV7QYx08n-7" value="Patient" style="rounded=0;whiteSpace=wrap;html=1;" vertex="1" parent="1">
                    <mxGeometry x="305" y="400" width="120" height="60" as="geometry"/>
                </mxCell>
                <mxCell id="e6D0tHdvvqGrV7QYx08n-8" value="Appointment" style="rounded=0;whiteSpace=wrap;html=1;" vertex="1" parent="1">
                    <mxGeometry x="160" y="500" width="120" height="60" as="geometry"/>
                </mxCell>
            </root>
        </mxGraphModel>
    </diagram>
</mxfile>